<svg width="119" height="107" viewBox="0 0 119 107" fill="none" xmlns="http://www.w3.org/2000/svg">
<path d="M79.66 38.42C71.29 38.42 62.7699 38.08 54.7999 35.86C46.9799 33.69 39.7999 29.48 33.3999 24.61C29.2099 21.44 25.3999 18.92 19.9599 19.3C14.6335 19.5916 9.54234 21.5901 5.43995 25C-1.48005 31 -0.440053 42.23 2.32995 50.12C6.48995 62 19.1499 70.23 29.9099 75.61C42.3399 81.82 55.9999 85.42 69.6899 87.5C81.6899 89.32 97.1099 90.65 107.51 82.81C117.06 75.61 119.68 59.17 117.34 48.07C116.773 44.7879 115.027 41.8257 112.43 39.74C105.72 34.84 95.7099 38.11 88.1699 38.28C85.3699 38.34 82.52 38.41 79.66 38.42Z" fill="#F2F2F2"/>
<path d="M59.18 106.95C79.4543 106.95 95.89 105.925 95.89 104.66C95.89 103.395 79.4543 102.37 59.18 102.37C38.9056 102.37 22.47 103.395 22.47 104.66C22.47 105.925 38.9056 106.95 59.18 106.95Z" fill="#F2F2F2"/>
<path d="M103.1 19.95V24.2599" stroke="#BABABA" stroke-linecap="round" stroke-linejoin="round"/>
<path d="M100.94 22.1H105.25" stroke="#BABABA" stroke-linecap="round" stroke-linejoin="round"/>
<path d="M50.9099 1.37V5.67999" stroke="#BABABA" stroke-linecap="round" stroke-linejoin="round"/>
<path d="M48.76 3.52002H53.06" stroke="#BABABA" stroke-linecap="round" stroke-linejoin="round"/>
<path d="M19.51 76.05V80.36" stroke="#BABABA" stroke-linecap="round" stroke-linejoin="round"/>
<path d="M17.3501 78.2H21.6601" stroke="#BABABA" stroke-linecap="round" stroke-linejoin="round"/>
<path d="M87.6599 62.55L88.9999 73.15C89.1387 74.2556 88.8335 75.3712 88.1512 76.2522C87.4689 77.1332 86.4651 77.7078 85.3599 77.85L39.3599 83.75C38.2543 83.8888 37.1387 83.5836 36.2577 82.9013C35.3767 82.2189 34.8021 81.2152 34.6599 80.11L33.2999 69.51C33.19 68.6006 33.2998 67.6782 33.6199 66.82L42.1699 44.22L41.4099 38.22C41.3819 38.0117 41.3954 37.7999 41.4498 37.5968C41.5041 37.3938 41.5981 37.2035 41.7265 37.0371C41.8548 36.8706 42.0149 36.7312 42.1974 36.627C42.3799 36.5228 42.5813 36.4558 42.7899 36.43L45.9999 36C46.4213 35.9489 46.8457 36.0664 47.1809 36.3267C47.5161 36.587 47.735 36.9691 47.7899 37.39L48.5599 43.39L66.1599 41.13L65.3899 35.13C65.3633 34.9211 65.3782 34.7091 65.4337 34.506C65.4892 34.3029 65.5842 34.1127 65.7134 33.9464C65.8425 33.7801 66.0032 33.641 66.1862 33.5369C66.3692 33.4328 66.571 33.3659 66.7799 33.34L69.9799 32.92C70.4024 32.8688 70.828 32.9859 71.1648 33.246C71.5016 33.5061 71.7226 33.8883 71.7799 34.31L72.5399 40.31H72.6799L86.6799 60.02C87.2065 60.7716 87.5428 61.6397 87.6599 62.55Z" fill="white" stroke="#BABABA" stroke-linecap="round" stroke-linejoin="round"/>
<path d="M17.9399 45.12C25.4599 46.67 32.0299 44.8 38.0699 40.63C39.7699 45.95 38.0699 50.05 32.9999 52.09C30.4033 53.0961 27.6615 53.6769 24.8799 53.81C20.0499 54 18.0999 51.46 17.9399 45.12Z" fill="#D2D2D2"/>
<path d="M97.61 34.91C90.73 38.31 83.9 38.15 77 35.64C76.69 41.22 79.36 44.77 84.8 45.45C87.5624 45.774 90.359 45.6456 93.08 45.07C97.82 44.08 99.06 41.08 97.61 34.91Z" fill="#D2D2D2"/>
<path d="M97.6901 34.82C90.6901 38.54 84.2701 38.23 77.7901 35.76C77.3401 35.59 76.7101 35.22 76.6401 34.85C75.9101 31.2 72.2701 30.15 69.0101 30C60.6807 29.6585 52.3535 30.7268 44.3801 33.16C41.2601 34.16 38.0001 36.06 38.2201 39.77C38.2201 40.15 37.7301 40.66 37.3301 40.94C31.6901 44.94 25.5601 46.88 17.8401 45.05C19.0101 40.68 20.0901 36.44 21.3501 32.24C21.5601 31.58 22.5401 31.02 23.2901 30.66C32.8496 25.9444 43.1144 22.8201 53.6801 21.41C54.8001 21.24 55.9201 21.1 57.0401 20.98C67.6262 19.6826 78.3528 20.1149 88.8001 22.26C89.6001 22.43 90.7001 22.72 91.0601 23.31C93.3401 27.05 95.4601 30.89 97.6901 34.82Z" fill="white" stroke="#BABABA" stroke-linecap="round" stroke-linejoin="round"/>
<path d="M52.2105 51.602L47.2014 52.2437L47.8431 57.2527L52.8522 56.611L52.2105 51.602Z" fill="#D2D2D2"/>
<path d="M61.0154 50.4717L56.0063 51.1134L56.648 56.1225L61.6571 55.4808L61.0154 50.4717Z" fill="#D2D2D2"/>
<path d="M69.8404 49.3401L64.8313 49.9818L65.473 54.9909L70.482 54.3492L69.8404 49.3401Z" fill="#D2D2D2"/>
<path d="M53.2879 60.0761L48.2788 60.7178L48.9205 65.7268L53.9295 65.0852L53.2879 60.0761Z" fill="#D2D2D2"/>
<path d="M62.1028 58.9445L57.0938 59.5862L57.7354 64.5953L62.7445 63.9536L62.1028 58.9445Z" fill="#D2D2D2"/>
<path d="M70.9178 57.8143L65.9087 58.4559L66.5504 63.465L71.5594 62.8233L70.9178 57.8143Z" fill="#D2D2D2"/>
<path d="M58.5601 92.46C59.1013 92.46 59.5401 92.0212 59.5401 91.48C59.5401 90.9388 59.1013 90.5 58.5601 90.5C58.0188 90.5 57.5801 90.9388 57.5801 91.48C57.5801 92.0212 58.0188 92.46 58.5601 92.46Z" fill="#CFCFCF"/>
<path d="M82.3501 16.8C82.8914 16.8 83.3301 16.3612 83.3301 15.82C83.3301 15.2787 82.8914 14.84 82.3501 14.84C81.8089 14.84 81.3701 15.2787 81.3701 15.82C81.3701 16.3612 81.8089 16.8 82.3501 16.8Z" fill="#CFCFCF"/>
<path d="M35.5501 17.2C36.0913 17.2 36.5301 16.7612 36.5301 16.22C36.5301 15.6788 36.0913 15.24 35.5501 15.24C35.0088 15.24 34.5701 15.6788 34.5701 16.22C34.5701 16.7612 35.0088 17.2 35.5501 17.2Z" fill="#CFCFCF"/>
</svg>
